HIERARCHY
ROOT Hips
{
	OFFSET 0.000000 0.000000 0.000000
	CHANNELS 6 Xposition Yposition Zposition Zrotation Yrotation Xrotation 
	JOINT LHipJoint
	{
		OFFSET 0.000000 0.000000 0.000000
		CHANNELS 3 Zrotation Yrotation Xrotation
		JOINT LeftUpLeg
		{
			OFFSET 1.363060 -1.794630 0.839290
			CHANNELS 3 Zrotation Yrotation Xrotation
			JOINT LeftLeg
			{
				OFFSET 2.448110 -6.726130 0.000000
				CHANNELS 3 Zrotation Yrotation Xrotation
				JOINT LeftFoot
				{
					OFFSET 2.562200 -7.039590 0.000000
					CHANNELS 3 Zrotation Yrotation Xrotation
					JOINT LeftToeBase
					{
						OFFSET 0.157640 -0.433110 2.322550
						CHANNELS 3 Zrotation Yrotation Xrotation
						End Site
						{
							OFFSET 0.000000 0.000000 0.000000
						}
					}
				}
			}
		}
	}
	JOINT RHipJoint
	{
		OFFSET 0.000000 0.000000 0.000000
		CHANNELS 3 Zrotation Yrotation Xrotation
		JOINT RightUpLeg
		{
			OFFSET -1.305520 -1.794630 0.839290
			CHANNELS 3 Zrotation Yrotation Xrotation
			JOINT RightLeg
			{
				OFFSET -2.542530 -6.985550 0.000000
				CHANNELS 3 Zrotation Yrotation Xrotation
				JOINT RightFoot
				{
					OFFSET -2.568260 -7.056230 0.000000
					CHANNELS 3 Zrotation Yrotation Xrotation
					JOINT RightToeBase
					{
						OFFSET -0.164730 -0.452590 2.363150
						CHANNELS 3 Zrotation Yrotation Xrotation
						End Site
						{
							OFFSET 0.000000 0.000000 0.000000
						}
					}
				}
			}
		}
	}
	JOINT LowerBack
	{
		OFFSET 0.000000 0.000000 0.000000
		CHANNELS 3 Zrotation Yrotation Xrotation
		JOINT Spine
		{
			OFFSET 0.028270 2.035590 -0.193380
			CHANNELS 3 Zrotation Yrotation Xrotation
			JOINT Spine1
			{
				OFFSET 0.056720 2.048850 -0.042750
				CHANNELS 3 Zrotation Yrotation Xrotation
				JOINT Neck
				{
					OFFSET 0.000000 0.000000 0.000000
					CHANNELS 3 Zrotation Yrotation Xrotation
					JOINT Neck1
					{
						OFFSET -0.054170 1.746240 0.172020
						CHANNELS 3 Zrotation Yrotation Xrotation
						JOINT Head
						{
							OFFSET 0.104070 1.761360 -0.123970
							CHANNELS 3 Zrotation Yrotation Xrotation
							End Site
							{
								OFFSET 0.000000 0.000000 0.000000
							}
						}
					}
				}
				JOINT LeftShoulder
				{
					OFFSET 0.000000 0.000000 0.000000
					CHANNELS 3 Zrotation Yrotation Xrotation
					JOINT LeftArm
					{
						OFFSET 3.362410 1.200890 -0.311210
						CHANNELS 3 Zrotation Yrotation Xrotation
						JOINT LeftForeArm
						{
							OFFSET 4.983000 -0.000000 -0.000000
							CHANNELS 3 Zrotation Yrotation Xrotation
							JOINT LeftHand
							{
								OFFSET 3.483560 -0.000000 -0.000000
								CHANNELS 3 Zrotation Yrotation Xrotation
								JOINT LeftFingerBase
								{
									OFFSET 0.000000 0.000000 0.000000
									CHANNELS 3 Zrotation Yrotation Xrotation
									JOINT LeftHandIndex1
									{
										OFFSET 0.715260 -0.000000 -0.000000
										CHANNELS 3 Zrotation Yrotation Xrotation
										End Site
										{
											OFFSET 0.000000 0.000000 0.000000
										}
									}
								}
								JOINT LThumb
								{
									OFFSET 0.000000 0.000000 0.000000
									CHANNELS 3 Zrotation Yrotation Xrotation
									End Site
									{
										OFFSET 0.000000 0.000000 0.000000
									}
								}
							}
						}
					}
				}
				JOINT RightShoulder
				{
					OFFSET 0.000000 0.000000 0.000000
					CHANNELS 3 Zrotation Yrotation Xrotation
					JOINT RightArm
					{
						OFFSET -3.136600 1.374050 -0.404650
						CHANNELS 3 Zrotation Yrotation Xrotation
						JOINT RightForeArm
						{
							OFFSET -5.241900 -0.000000 -0.000000
							CHANNELS 3 Zrotation Yrotation Xrotation
							JOINT RightHand
							{
								OFFSET -3.444170 -0.000000 -0.000000
								CHANNELS 3 Zrotation Yrotation Xrotation
								JOINT RightFingerBase
								{
									OFFSET 0.000000 0.000000 0.000000
									CHANNELS 3 Zrotation Yrotation Xrotation
									JOINT RightHandIndex1
									{
										OFFSET -0.622530 -0.000000 -0.000000
										CHANNELS 3 Zrotation Yrotation Xrotation
										End Site
										{
											OFFSET 0.000000 0.000000 0.000000
										}
									}
								}
								JOINT RThumb
								{
									OFFSET 0.000000 0.000000 0.000000
									CHANNELS 3 Zrotation Yrotation Xrotation
									End Site
									{
										OFFSET 0.000000 0.000000 0.000000
									}
								}
							}
						}
					}
				}
			}
		}
	}
}
MOTION
Frames: 7
Frame Time: 0.008333
3.746797 17.819702 3.588916 -153.196057 -81.234760 176.497949 -10.767332 0.846112 -2.933137 -11.169759 9.274949 -22.658789 -2.430734 0.613567 17.491584 0.093329 -0.722036 2.607775 0.035200 -0.000000 -48.780300 9.575826 0.750451 -0.471202 2.571184 2.829019 -35.897367 1.249749 -2.078485 28.672138 -0.303308 -0.790135 9.008665 -0.558700 0.000000 -47.124000 -3.233072 -1.988593 5.609664 -1.960405 -1.716421 -1.345421 -8.485039 -1.658262 0.811710 7.823451 1.661760 3.324629 -4.665610 -0.393391 2.515098 0.000000 0.000000 0.000000 -1.479683 -7.009942 2.547484 -47.054524 -54.009971 8.121067 -2.513018 -29.291665 -0.030496 6.141554 -3.135914 -0.191660 -0.137410 0.373451 -0.000000 0.000000 0.000000 0.000000 0.000000 0.000000 0.000000 18.568505 0.122707 0.611461 60.492913 8.974990 2.729206 2.358752 34.761976 0.010955 2.337039 8.567035 0.175705 0.033191 -0.129166 0.000000 0.000000 0.000000 0.000000 0.000000 0.000000 0.000000 
3.636110 17.822087 3.590856 -153.689334 -81.193567 176.964566 -10.793167 0.878267 -2.987671 -11.102789 9.266939 -22.165023 -2.404496 0.635991 17.530975 0.083861 -0.823378 2.910257 0.014000 -0.000000 -49.615200 9.507689 0.774187 -0.351825 2.597197 3.243433 -36.266129 1.324151 -2.002421 27.692642 -0.249371 -0.544955 8.968907 -0.503600 0.000000 -47.481500 -3.099485 -2.067751 5.580075 -1.924974 -1.801646 -1.342257 -8.457931 -1.742530 0.817606 7.832100 1.479206 3.239796 -4.662620 -0.392831 2.496131 0.000000 0.000000 0.000000 -1.263781 -7.018355 2.530608 -46.290031 -54.370437 7.488993 -2.435519 -29.323886 -0.031326 6.140853 -3.135746 -0.191868 -0.134284 0.379509 -0.000000 0.000000 0.000000 0.000000 0.000000 0.000000 0.000000 18.550056 -0.089859 0.609885 60.137336 8.903701 2.526843 2.345299 35.241004 0.011009 2.324935 8.582337 0.175109 0.033393 -0.130062 0.000000 0.000000 0.000000 0.000000 0.000000 0.000000 0.000000 
3.524545 17.823684 3.591612 -154.256711 -81.171119 177.508016 -10.817818 0.911602 -3.044208 -11.055813 9.251601 -21.670929 -2.378196 0.658688 17.569890 0.075995 -0.912253 3.233040 -0.006400 -0.000001 -50.388100 9.439245 0.796725 -0.239011 2.630513 3.624797 -36.627570 1.404799 -1.922926 26.682323 -0.189444 -0.264510 8.924283 -0.437700 -0.000000 -47.734200 -2.977235 -2.146301 5.560593 -1.891844 -1.885706 -1.337950 -8.430458 -1.825852 0.822442 7.843930 1.305015 3.157621 -4.659989 -0.392287 2.477506 0.000000 0.000000 0.000000 -1.060048 -7.021083 2.511795 -45.550517 -54.656639 6.869630 -2.360116 -29.422593 -0.032108 6.137837 -3.136130 -0.191974 -0.131174 0.385314 -0.000000 0.000000 0.000000 0.000000 0.000000 0.000000 0.000000 18.537730 -0.298036 0.608475 59.798584 8.830739 2.328827 2.331978 35.688397 0.011053 2.308129 8.605208 0.174212 0.033592 -0.130891 0.000000 0.000000 0.000000 0.000000 0.000000 0.000000 0.000000 
3.411919 17.824487 3.591121 -154.913408 -81.168204 178.144150 -10.841323 0.946100 -3.102966 -11.032049 9.234693 -21.176390 -2.352887 0.680792 17.604359 0.069553 -0.988984 3.567732 -0.025600 0.000000 -51.118100 9.370869 0.817848 -0.131079 2.668097 3.974792 -36.985654 1.489941 -1.840178 25.645376 -0.124717 0.044448 8.889231 -0.363000 0.000000 -47.838500 -2.867855 -2.223901 5.548990 -1.861428 -1.968174 -1.332406 -8.403190 -1.907644 0.828385 7.859905 1.129831 3.075784 -4.658375 -0.391784 2.458637 0.000000 0.000000 0.000000 -0.872036 -7.017403 2.490983 -44.840566 -54.875149 6.272207 -2.287905 -29.583146 -0.032840 6.133349 -3.136628 -0.192079 -0.128138 0.390806 -0.000000 0.000000 0.000000 0.000000 0.000000 0.000000 0.000000 18.535701 -0.511581 0.607094 59.472599 8.763824 2.151090 2.318670 36.101076 0.011074 2.273747 8.634464 0.172215 0.033915 -0.131635 0.000000 0.000000 0.000000 0.000000 0.000000 0.000000 0.000000 
3.298053 17.824531 3.589449 -155.653486 -81.183608 178.869581 -10.864018 0.981818 -3.163060 -11.030880 9.223318 -20.685551 -2.329567 0.701643 17.633912 0.063830 -1.059119 3.905565 -0.044400 0.000000 -51.831800 9.302794 0.836535 -0.024895 2.710524 4.297976 -37.347486 1.577679 -1.754525 24.589511 -0.056816 0.371700 8.877311 -0.282400 0.000000 -47.781500 -2.768441 -2.299393 5.539981 -1.833171 -2.048134 -1.327757 -8.376661 -1.987239 0.832528 7.881764 0.966870 3.000229 -4.657478 -0.391360 2.441266 0.000000 0.000000 0.000000 -0.700203 -7.017405 2.469978 -44.170496 -55.013708 5.697426 -2.220100 -29.809362 -0.033521 6.128135 -3.134115 -0.191983 -0.125230 0.395910 -0.000000 0.000000 0.000000 0.000000 0.000000 0.000000 0.000000 18.543552 -0.716460 0.605898 59.161612 8.675676 1.971816 2.304664 36.496229 0.011068 2.229190 8.658146 0.169217 0.034260 -0.132254 0.000000 0.000000 0.000000 0.000000 0.000000 0.000000 0.000000 
3.182675 17.823802 3.586701 -156.469119 -81.214855 179.679715 -10.886061 1.018445 -3.224095 -11.050224 9.222748 -20.200552 -2.309063 0.720512 17.654975 0.058063 -1.128799 4.239883 -0.063700 -0.000001 -52.562300 9.235210 0.852326 0.081794 2.758101 4.599663 -37.721748 1.666165 -1.666761 23.526021 0.012568 0.706848 8.896624 -0.198600 0.000001 -47.579500 -2.675687 -2.371874 5.530437 -1.806498 -2.124810 -1.323536 -8.351586 -2.063610 0.839087 7.908418 0.800734 2.926750 -4.658287 -0.391044 2.424268 0.000000 0.000000 0.000000 -0.551856 -7.016127 2.448294 -43.542366 -55.085680 5.157041 -2.157627 -30.093154 -0.034153 6.124618 -3.130625 -0.191885 -0.122527 0.400590 -0.000000 0.000000 0.000000 0.000000 0.000000 0.000000 0.000000 18.564882 -0.928940 0.604577 58.859487 8.586646 1.815720 2.290794 36.862065 0.011031 2.162515 8.680669 0.164520 0.034785 -0.132732 0.000000 0.000000 0.000000 0.000000 0.000000 0.000000 0.000000 
3.065658 17.822336 3.583006 -157.337926 -81.257765 -179.445528 -10.907823 1.055783 -3.285109 -11.084815 9.238068 -19.724021 -2.291794 0.736978 17.665699 0.051355 -1.206293 4.567207 -0.084701 0.000000 -53.340400 9.168088 0.864339 0.191487 2.814009 4.886281 -38.116072 1.753970 -1.577662 22.467315 0.081543 1.037730 8.948563 -0.114899 0.000000 -47.275400 -2.583774 -2.439679 5.516184 -1.780250 -2.196862 -1.321378 -8.328407 -2.135609 0.845994 7.939931 0.642443 2.860446 -4.660557 -0.390864 2.409109 0.000000 0.000000 0.000000 -0.428043 -7.020862 2.427297 -42.965074 -55.082352 4.650324 -2.101307 -30.436201 -0.034746 6.124643 -3.125505 -0.191685 -0.120084 0.404802 -0.000000 0.000000 0.000000 0.000000 0.000000 0.000000 0.000000 18.597716 -1.137214 0.603280 58.567923 8.478052 1.665366 2.277063 37.208889 0.010966 2.083722 8.695856 0.158622 0.035388 -0.133047 0.000000 0.000000 0.000000 0.000000 0.000000 0.000000 0.000000 
